<?xml version="1.0" encoding="UTF-8"?>
<svg version="1.1" xmlns="http://www.w3.org/2000/svg" width="208" height="740">
<path d="M0 0 C8.98848674 -0.1626158 17.97646267 -0.28678181 26.9661026 -0.3626852 C31.14101841 -0.3991267 35.3149236 -0.44850555 39.48925781 -0.52807617 C43.52235249 -0.60446818 47.55447894 -0.64605854 51.58824158 -0.6641407 C53.12246434 -0.67701611 54.65663758 -0.7021602 56.19044495 -0.7401104 C69.69908513 -1.06087395 69.69908513 -1.06087395 74.88476562 3.33422852 C80.52202445 9.26586414 81.5701627 15.76511802 82 23.625 C82.07605469 24.45773438 82.15210938 25.29046875 82.23046875 26.1484375 C82.5938056 32.31534402 82.5938056 32.31534402 79.5234375 35.85546875 C78.27433594 36.91701172 78.27433594 36.91701172 77 38 C76.64798897 41.46144178 76.43064406 43.86128812 78 47 C78.20699563 48.49496842 78.36679259 49.9966592 78.5 51.5 C78.5825 52.386875 78.665 53.27375 78.75 54.1875 C78.91666667 56.0625 79.08333333 57.9375 79.25 59.8125 C79.3325 60.699375 79.415 61.58625 79.5 62.5 C79.5721875 63.3146875 79.644375 64.129375 79.71875 64.96875 C79.89826909 67.06346646 79.89826909 67.06346646 81 69 C81.17668679 71.66188793 81.2773591 74.27381958 81.3125 76.9375 C81.34150391 77.66646484 81.37050781 78.39542969 81.40039062 79.14648438 C81.42578125 81.27734375 81.42578125 81.27734375 81 85 C79.67790481 86.01481135 78.34459252 87.01519102 77 88 C76.67396708 90.65612137 76.57448279 92.86293175 76.6875 95.5 C76.70200195 96.51513672 76.70200195 96.51513672 76.71679688 97.55078125 C76.78617191 100.60931562 77.02740053 103.08220159 78 106 C78.19283439 107.79972851 78.3420483 109.60429659 78.46484375 111.41015625 C78.54283203 112.48330078 78.62082031 113.55644531 78.70117188 114.66210938 C78.85681398 116.90155486 79.01050954 119.14113662 79.16210938 121.38085938 C79.65224218 128.07137147 80.53727002 134.45759576 82 141 C82.35992453 142.73632842 82.71665014 144.47332276 83.0703125 146.2109375 C83.24433594 147.06300781 83.41835937 147.91507813 83.59765625 148.79296875 C83.77167969 149.64503906 83.94570312 150.49710938 84.125 151.375 C84.39763672 152.68791016 84.39763672 152.68791016 84.67578125 154.02734375 C84.93294922 155.29384766 84.93294922 155.29384766 85.1953125 156.5859375 C85.35016113 157.3392334 85.50500977 158.0925293 85.66455078 158.86865234 C86 161 86 161 86 165 C86.66 165 87.32 165 88 165 C88.32871094 165.98226562 88.32871094 165.98226562 88.6640625 166.984375 C90.45019348 172.12494709 92.42205425 176.98310416 94.9375 181.8125 C97.8086611 187.37310314 99.92071589 193.04531903 101.921875 198.96875 C102.88551097 201.90907074 102.88551097 201.90907074 104.140625 204.15625 C105 206 105 206 105 210 C105.66 210 106.32 210 107 210 C107.95385749 213.10003683 108.907402 216.20016495 109.859375 219.30078125 C110.57218092 221.61251827 111.29008592 223.92269637 112.015625 226.23046875 C114.23080004 233.30672236 116.21287469 240.41337949 118.0703125 247.58984375 C118.63479648 249.66040895 119.2432385 251.7205174 119.9296875 253.75390625 C122.88980901 262.73150106 124.85708395 271.84889726 126.625 281.125 C127.05119324 283.35744076 127.48069143 285.58925403 127.9140625 287.8203125 C128.0992041 288.79242676 128.2843457 289.76454102 128.47509766 290.76611328 C128.78347902 292.95901688 128.78347902 292.95901688 130 294 C130.47930671 297.20536362 130.87206832 300.41058178 131.25 303.62890625 C131.40362705 307.11109275 131.40362705 307.11109275 133 310 C133.37514918 312.64656024 133.7061971 315.28179725 134 317.9375 C134.40578678 323.12513306 134.40578678 323.12513306 136 328 C136.20899818 329.72586779 136.36782688 331.45796166 136.5 333.19140625 C136.5825 334.21814453 136.665 335.24488281 136.75 336.30273438 C136.9169645 338.47979489 137.08363011 340.65687834 137.25 342.83398438 C137.3325 343.85943359 137.415 344.88488281 137.5 345.94140625 C137.5721875 346.88701416 137.644375 347.83262207 137.71875 348.80688477 C137.76940367 350.97320988 137.76940367 350.97320988 139 352 C139.1005688 354.88078484 139.13615368 357.73763093 139.12939453 360.61889648 C139.13202301 361.97491974 139.13202301 361.97491974 139.13470459 363.3583374 C139.139125 366.36260874 139.13618421 369.36682175 139.1328125 372.37109375 C139.13348554 374.44995637 139.13445557 376.52881892 139.13571167 378.60768127 C139.13718895 382.97161608 139.13503335 387.33553046 139.13037109 391.69946289 C139.12467733 397.30314735 139.1279504 402.90678388 139.13394356 408.51046658 C139.13755138 412.80573388 139.1364095 417.10098976 139.13381577 421.3962574 C139.13314693 423.46279977 139.13397342 425.52934315 139.13629532 427.59588432 C139.13882506 430.48118728 139.13497649 433.36641189 139.12939453 436.25170898 C139.13141876 437.11256607 139.13344299 437.97342316 139.13552856 438.86036682 C139.11426313 444.77147374 139.11426313 444.77147374 138 447 C137.78990785 448.86019087 137.63162181 450.7263656 137.5 452.59375 C137.4175 453.70621094 137.335 454.81867188 137.25 455.96484375 C137.1675 457.13144531 137.085 458.29804688 137 459.5 C136.83718126 461.80235868 136.67070037 464.10446225 136.5 466.40625 C136.4278125 467.43041016 136.355625 468.45457031 136.28125 469.50976562 C136 472 136 472 135 474 C134.79300437 475.49496842 134.63320741 476.9966592 134.5 478.5 C134.4175 479.386875 134.335 480.27375 134.25 481.1875 C134.1675 482.115625 134.085 483.04375 134 484 C133.83700768 485.83366365 133.67050976 487.6670201 133.5 489.5 C133.4278125 490.3146875 133.355625 491.129375 133.28125 491.96875 C133 494 133 494 132 496 C131.79465218 497.36060759 131.63408839 498.72818882 131.5 500.09765625 C131.4175 500.89880859 131.335 501.69996094 131.25 502.52539062 C131.08295212 504.2206656 130.91628718 505.91597836 130.75 507.61132812 C130.1015274 513.8984726 130.1015274 513.8984726 129 515 C128.78601166 516.34095643 128.6296585 517.69124991 128.5 519.04296875 C128.4175 519.86990234 128.335 520.69683594 128.25 521.54882812 C128.1675 522.41958984 128.085 523.29035156 128 524.1875 C127.48544593 529.49785883 126.91342532 534.74066825 126 540 C121.54583458 572.22310299 121.15749107 605.56521669 129.56591797 637.12402344 C130.74159486 641.64137186 131.19275456 645.37389066 131 650 C131.66 650 132.32 650 133 650 C133.13277344 651.13179687 133.26554688 652.26359375 133.40234375 653.4296875 C133.5805342 654.91148179 133.75893029 656.39325136 133.9375 657.875 C134.02451172 658.62136719 134.11152344 659.36773438 134.20117188 660.13671875 C134.63326063 664.1953231 134.63326063 664.1953231 136 668 C137.10382248 675.68789034 137.1544895 683.4366755 137.125 691.1875 C137.12886719 692.21552734 137.13273438 693.24355469 137.13671875 694.30273438 C137.12702604 701.87759073 137.1168082 709.12225123 134.0625 716.1875 C133.72347656 716.98542969 133.38445312 717.78335938 133.03515625 718.60546875 C132.69355469 719.39566406 132.35195312 720.18585937 132 721 C131.3289318 722.6648993 130.66104091 724.33109403 130 726 C129.34 726 128.68 726 128 726 C127.62294922 726.87978516 127.62294922 726.87978516 127.23828125 727.77734375 C125.84531995 730.27764337 124.35777594 731.70759876 122.1875 733.5625 C121.52105469 734.14128906 120.85460937 734.72007812 120.16796875 735.31640625 C115.54731527 738.90469751 112.48131132 740.37462815 106.55038452 740.41459656 C105.24679993 740.43028183 103.94321533 740.4459671 102.60012817 740.46212769 C101.16229295 740.46426865 99.72445716 740.46605738 98.28662109 740.4675293 C96.76679516 740.47978542 95.24697847 740.49323856 93.72717285 740.50779724 C89.60288491 740.54282205 85.47875701 740.5581032 81.35433912 740.56763434 C78.77405423 740.57421718 76.19381148 740.584565 73.61354446 740.59613991 C64.6012343 740.63587341 55.58905178 740.65789446 46.57666016 740.66577148 C38.19384592 740.67363245 29.81194921 740.72281864 21.4294275 740.79083699 C14.21984433 740.84728117 7.01056501 740.87268852 -0.19923723 740.87471896 C-4.49963483 740.87655437 -8.79906536 740.89102549 -13.09923172 740.93753624 C-17.14957264 740.98041401 -21.19818259 740.9844502 -25.24865723 740.95974159 C-26.72763564 740.95717087 -28.20671423 740.968044 -29.68546677 740.99401855 C-39.92797531 741.1629877 -46.40075608 739.16132048 -54 732 C-56.19277294 729.76941909 -58.16630462 727.53314619 -60 725 C-60.556875 724.236875 -61.11375 723.47375 -61.6875 722.6875 C-66.40881759 713.02004018 -67.17747156 702.90542199 -67.125 692.3125 C-67.12161621 691.33369873 -67.11823242 690.35489746 -67.11474609 689.34643555 C-67.04471331 679.53940246 -66.35471568 670.12163728 -64.47265625 660.48828125 C-64.0543249 658.28599144 -63.72268568 656.09763763 -63.4375 653.875 C-63 651 -63 651 -62 650 C-61.45644645 646.80719384 -61.03409014 643.60360399 -60.59765625 640.39453125 C-60.0161681 637.09183057 -59.11310505 634.1573246 -58 631 C-50.61150374 606.21159504 -52.45018077 579.24481902 -54.4375 553.8125 C-54.50480316 552.94728729 -54.57210632 552.08207458 -54.64144897 551.19064331 C-54.8369334 548.71639755 -55.03973938 546.24289204 -55.24609375 543.76953125 C-55.30657898 543.01529877 -55.36706421 542.26106628 -55.42938232 541.48397827 C-55.71558817 537.61582099 -55.71558817 537.61582099 -57 534 C-57.20619837 532.57809042 -57.36637017 531.14930503 -57.5 529.71875 C-57.5825 528.87699219 -57.665 528.03523437 -57.75 527.16796875 C-57.91666667 525.38932292 -58.08333333 523.61067708 -58.25 521.83203125 C-58.3325 520.99027344 -58.415 520.14851562 -58.5 519.28125 C-58.5721875 518.50845703 -58.644375 517.73566406 -58.71875 516.93945312 C-58.90741411 514.92332061 -58.90741411 514.92332061 -60 513 C-60.20532132 511.65115298 -60.36589844 510.2952783 -60.5 508.9375 C-60.62375 507.74253906 -60.62375 507.74253906 -60.75 506.5234375 C-60.91666667 504.84114583 -61.08333333 503.15885417 -61.25 501.4765625 C-61.3325 500.67992187 -61.415 499.88328125 -61.5 499.0625 C-61.5721875 498.33160156 -61.644375 497.60070312 -61.71875 496.84765625 C-61.91678044 494.9101711 -61.91678044 494.9101711 -63 493 C-63.20618015 491.5898495 -63.36636158 490.17277039 -63.5 488.75390625 C-63.5825 487.91666016 -63.665 487.07941406 -63.75 486.21679688 C-63.87375 484.90291992 -63.87375 484.90291992 -64 483.5625 C-64.16349259 481.83433219 -64.33003418 480.10644942 -64.5 478.37890625 C-64.5721875 477.6113501 -64.644375 476.84379395 -64.71875 476.05297852 C-64.962323 473.80546728 -64.962323 473.80546728 -66 471 C-66.20376996 469.20303904 -66.36499503 467.40108758 -66.5 465.59765625 C-66.5825 464.54255859 -66.665 463.48746094 -66.75 462.40039062 C-66.8325 461.29888672 -66.915 460.19738281 -67 459.0625 C-67.1635527 456.88648246 -67.33009885 454.71068732 -67.5 452.53515625 C-67.5721875 451.569729 -67.644375 450.60430176 -67.71875 449.60961914 C-67.92347007 447.09318302 -67.92347007 447.09318302 -68.50964165 445.07687473 C-69.33597831 441.57698997 -69.13830181 438.00158269 -69.12939453 434.42358398 C-69.13114685 433.55975098 -69.13289917 432.69591797 -69.13470459 431.8059082 C-69.1391033 428.95261624 -69.13619232 426.09938633 -69.1328125 423.24609375 C-69.13348605 421.26359546 -69.1344565 419.28109725 -69.13571167 417.29859924 C-69.13718591 413.14510308 -69.13504263 408.99162843 -69.13037109 404.83813477 C-69.12467026 399.50927998 -69.1279568 394.18047552 -69.13394356 388.85162258 C-69.13755338 384.75876993 -69.1364087 380.66592926 -69.13381577 376.57307625 C-69.13314786 374.60783952 -69.13397019 372.64260172 -69.13629532 370.67736626 C-69.13882911 367.9338886 -69.13497108 365.19049302 -69.12939453 362.44702148 C-69.13141876 361.63187576 -69.13344299 360.81673004 -69.13552856 359.97688293 C-69.1232517 356.72373416 -69.03619553 354.10858659 -68 351 C-67.81038179 349.50398737 -67.65973112 348.00282732 -67.53515625 346.5 C-67.45716797 345.61183594 -67.37917969 344.72367187 -67.29882812 343.80859375 C-67.1439145 341.96755415 -66.99022466 340.12641108 -66.83789062 338.28515625 C-66.34739809 332.72624086 -65.58110516 327.30642193 -64.53295898 321.82568359 C-63.97653691 318.87560154 -63.48109766 315.92028991 -63 312.95703125 C-62.835 311.94576172 -62.67 310.93449219 -62.5 309.89257812 C-62.16481303 307.82777401 -61.83149982 305.76266491 -61.5 303.69726562 C-60.57332536 298.03948255 -59.45196523 292.5449066 -58 287 C-57.35229049 284.19247002 -56.74022037 281.37730529 -56.125 278.5625 C-54.73319956 272.26509771 -53.32767191 265.9711666 -51.875 259.6875 C-51.71660645 258.98890869 -51.55821289 258.29031738 -51.39501953 257.57055664 C-50.53590728 253.88484788 -49.42054945 250.49886305 -48 247 C-47.32684166 244.59080173 -46.68326495 242.17322705 -46.0625 239.75 C-44.05643409 232.0568165 -41.64468381 224.63570117 -38.80859375 217.21484375 C-37.84671664 214.58013688 -36.98901095 211.91837118 -36.125 209.25 C-32.00005176 196.81312599 -26.34930884 184.94634728 -21 173 C-20.34 173 -19.68 173 -19 173 C-18.814375 171.4221875 -18.814375 171.4221875 -18.625 169.8125 C-18.07676037 166.46823825 -17.25781349 164.09794804 -16 161 C-13.61689029 153.11190684 -12.38050995 145.21174325 -11.4296875 137.0546875 C-11 134 -11 134 -10 132 C-9.78895342 130.00549994 -9.63114918 128.00524856 -9.5 126.00390625 C-9.4175 124.80572266 -9.335 123.60753906 -9.25 122.37304688 C-9.1675 121.11556641 -9.085 119.85808594 -9 118.5625 C-8.83691661 116.084397 -8.67041057 113.60651617 -8.5 111.12890625 C-8.4278125 110.02619385 -8.355625 108.92348145 -8.28125 107.78735352 C-8 105 -8 105 -7 102 C-6.82889518 99.69148747 -6.73364199 97.37688499 -6.6875 95.0625 C-6.65011719 93.83660156 -6.61273438 92.61070313 -6.57421875 91.34765625 C-7.08341469 87.34416157 -8.18952862 86.70637985 -11 84 C-12.25002044 76.46809716 -10.79211361 68.54631421 -9.5078125 61.09375 C-8.89831538 57.38050599 -8.54675815 53.67488229 -8.24609375 49.92578125 C-8 48 -8 48 -7 46 C-6.77532169 44.46331135 -6.59203195 42.92031946 -6.4375 41.375 C-6.35371094 40.55773438 -6.26992188 39.74046875 -6.18359375 38.8984375 C-6.12300781 38.27195313 -6.06242187 37.64546875 -6 37 C-6.61875 36.731875 -7.2375 36.46375 -7.875 36.1875 C-10 35 -10 35 -12 32 C-12.11463944 29.24571393 -12.10404321 26.67614478 -11.9375 23.9375 C-11.89149658 23.17614746 -11.84549316 22.41479492 -11.7980957 21.63037109 C-11.21705695 14.554176 -9.52293255 8.03120391 -3.95703125 3.2421875 C-2 2 -2 2 0 2 C0 1.34 0 0.68 0 0 Z " fill="#863E2F" transform="translate(69,0)"/>
<path d="M0 0 C8.98848674 -0.1626158 17.97646267 -0.28678181 26.9661026 -0.3626852 C31.14101841 -0.3991267 35.3149236 -0.44850555 39.48925781 -0.52807617 C43.52235249 -0.60446818 47.55447894 -0.64605854 51.58824158 -0.6641407 C53.12246434 -0.67701611 54.65663758 -0.7021602 56.19044495 -0.7401104 C69.69908513 -1.06087395 69.69908513 -1.06087395 74.88476562 3.33422852 C80.52202445 9.26586414 81.5701627 15.76511802 82 23.625 C82.07605469 24.45773438 82.15210938 25.29046875 82.23046875 26.1484375 C82.5938056 32.31534402 82.5938056 32.31534402 79.5234375 35.85546875 C78.27433594 36.91701172 78.27433594 36.91701172 77 38 C76.64798897 41.46144178 76.43064406 43.86128812 78 47 C78.20699563 48.49496842 78.36679259 49.9966592 78.5 51.5 C78.5825 52.386875 78.665 53.27375 78.75 54.1875 C78.91666667 56.0625 79.08333333 57.9375 79.25 59.8125 C79.3325 60.699375 79.415 61.58625 79.5 62.5 C79.5721875 63.3146875 79.644375 64.129375 79.71875 64.96875 C79.89826909 67.06346646 79.89826909 67.06346646 81 69 C81.17668679 71.66188793 81.2773591 74.27381958 81.3125 76.9375 C81.34150391 77.66646484 81.37050781 78.39542969 81.40039062 79.14648438 C81.42578125 81.27734375 81.42578125 81.27734375 81 85 C79.67790481 86.01481135 78.34459252 87.01519102 77 88 C76.67396708 90.65612137 76.57448279 92.86293175 76.6875 95.5 C76.70200195 96.51513672 76.70200195 96.51513672 76.71679688 97.55078125 C76.78617191 100.60931562 77.02740053 103.08220159 78 106 C78.19283439 107.79972851 78.3420483 109.60429659 78.46484375 111.41015625 C78.54283203 112.48330078 78.62082031 113.55644531 78.70117188 114.66210938 C78.85681398 116.90155486 79.01050954 119.14113662 79.16210938 121.38085938 C79.65224218 128.07137147 80.53727002 134.45759576 82 141 C82.35992453 142.73632842 82.71665014 144.47332276 83.0703125 146.2109375 C83.24433594 147.06300781 83.41835937 147.91507813 83.59765625 148.79296875 C83.77167969 149.64503906 83.94570312 150.49710938 84.125 151.375 C84.39763672 152.68791016 84.39763672 152.68791016 84.67578125 154.02734375 C84.93294922 155.29384766 84.93294922 155.29384766 85.1953125 156.5859375 C85.35016113 157.3392334 85.50500977 158.0925293 85.66455078 158.86865234 C86 161 86 161 86 165 C86.66 165 87.32 165 88 165 C88.32871094 165.98226562 88.32871094 165.98226562 88.6640625 166.984375 C90.45019348 172.12494709 92.42205425 176.98310416 94.9375 181.8125 C97.8086611 187.37310314 99.92071589 193.04531903 101.921875 198.96875 C102.88551097 201.90907074 102.88551097 201.90907074 104.140625 204.15625 C105 206 105 206 105 210 C105.66 210 106.32 210 107 210 C107.95385749 213.10003683 108.907402 216.20016495 109.859375 219.30078125 C110.57218092 221.61251827 111.29008592 223.92269637 112.015625 226.23046875 C114.23080004 233.30672236 116.21287469 240.41337949 118.0703125 247.58984375 C118.63479648 249.66040895 119.2432385 251.7205174 119.9296875 253.75390625 C122.88980901 262.73150106 124.85708395 271.84889726 126.625 281.125 C127.05119324 283.35744076 127.48069143 285.58925403 127.9140625 287.8203125 C128.0992041 288.79242676 128.2843457 289.76454102 128.47509766 290.76611328 C128.78347902 292.95901688 128.78347902 292.95901688 130 294 C130.47930671 297.20536362 130.87206832 300.41058178 131.25 303.62890625 C131.40362705 307.11109275 131.40362705 307.11109275 133 310 C133.37514918 312.64656024 133.7061971 315.28179725 134 317.9375 C134.40578678 323.12513306 134.40578678 323.12513306 136 328 C136.20899818 329.72586779 136.36782688 331.45796166 136.5 333.19140625 C136.5825 334.21814453 136.665 335.24488281 136.75 336.30273438 C136.9169645 338.47979489 137.08363011 340.65687834 137.25 342.83398438 C137.3325 343.85943359 137.415 344.88488281 137.5 345.94140625 C137.5721875 346.88701416 137.644375 347.83262207 137.71875 348.80688477 C137.76940367 350.97320988 137.76940367 350.97320988 139 352 C139 366.85 139 381.7 139 397 C70.36 397 1.72 397 -69 397 C-69 354 -69 354 -68 351 C-67.81038179 349.50398737 -67.65973112 348.00282732 -67.53515625 346.5 C-67.45716797 345.61183594 -67.37917969 344.72367187 -67.29882812 343.80859375 C-67.1439145 341.96755415 -66.99022466 340.12641108 -66.83789062 338.28515625 C-66.34739809 332.72624086 -65.58110516 327.30642193 -64.53295898 321.82568359 C-63.97653691 318.87560154 -63.48109766 315.92028991 -63 312.95703125 C-62.835 311.94576172 -62.67 310.93449219 -62.5 309.89257812 C-62.16481303 307.82777401 -61.83149982 305.76266491 -61.5 303.69726562 C-60.57332536 298.03948255 -59.45196523 292.5449066 -58 287 C-57.35229049 284.19247002 -56.74022037 281.37730529 -56.125 278.5625 C-54.73319956 272.26509771 -53.32767191 265.9711666 -51.875 259.6875 C-51.71660645 258.98890869 -51.55821289 258.29031738 -51.39501953 257.57055664 C-50.53590728 253.88484788 -49.42054945 250.49886305 -48 247 C-47.32684166 244.59080173 -46.68326495 242.17322705 -46.0625 239.75 C-44.05643409 232.0568165 -41.64468381 224.63570117 -38.80859375 217.21484375 C-37.84671664 214.58013688 -36.98901095 211.91837118 -36.125 209.25 C-32.00005176 196.81312599 -26.34930884 184.94634728 -21 173 C-20.34 173 -19.68 173 -19 173 C-18.814375 171.4221875 -18.814375 171.4221875 -18.625 169.8125 C-18.07676037 166.46823825 -17.25781349 164.09794804 -16 161 C-13.61689029 153.11190684 -12.38050995 145.21174325 -11.4296875 137.0546875 C-11 134 -11 134 -10 132 C-9.78895342 130.00549994 -9.63114918 128.00524856 -9.5 126.00390625 C-9.4175 124.80572266 -9.335 123.60753906 -9.25 122.37304688 C-9.1675 121.11556641 -9.085 119.85808594 -9 118.5625 C-8.83691661 116.084397 -8.67041057 113.60651617 -8.5 111.12890625 C-8.4278125 110.02619385 -8.355625 108.92348145 -8.28125 107.78735352 C-8 105 -8 105 -7 102 C-6.82889518 99.69148747 -6.73364199 97.37688499 -6.6875 95.0625 C-6.65011719 93.83660156 -6.61273438 92.61070313 -6.57421875 91.34765625 C-7.08341469 87.34416157 -8.18952862 86.70637985 -11 84 C-12.25002044 76.46809716 -10.79211361 68.54631421 -9.5078125 61.09375 C-8.89831538 57.38050599 -8.54675815 53.67488229 -8.24609375 49.92578125 C-8 48 -8 48 -7 46 C-6.77532169 44.46331135 -6.59203195 42.92031946 -6.4375 41.375 C-6.35371094 40.55773438 -6.26992188 39.74046875 -6.18359375 38.8984375 C-6.12300781 38.27195313 -6.06242187 37.64546875 -6 37 C-6.61875 36.731875 -7.2375 36.46375 -7.875 36.1875 C-10 35 -10 35 -12 32 C-12.11463944 29.24571393 -12.10404321 26.67614478 -11.9375 23.9375 C-11.89149658 23.17614746 -11.84549316 22.41479492 -11.7980957 21.63037109 C-11.21705695 14.554176 -9.52293255 8.03120391 -3.95703125 3.2421875 C-2 2 -2 2 0 2 C0 1.34 0 0.68 0 0 Z " fill="#873F30" transform="translate(69,0)"/>
<path d="M0 0 C68.64 0 137.28 0 208 0 C208 48 208 48 207 50 C206.78990785 51.86019087 206.63162181 53.7263656 206.5 55.59375 C206.4175 56.70621094 206.335 57.81867188 206.25 58.96484375 C206.1675 60.13144531 206.085 61.29804688 206 62.5 C205.83718126 64.80235868 205.67070037 67.10446225 205.5 69.40625 C205.4278125 70.43041016 205.355625 71.45457031 205.28125 72.50976562 C205 75 205 75 204 77 C203.79300437 78.49496842 203.63320741 79.9966592 203.5 81.5 C203.4175 82.386875 203.335 83.27375 203.25 84.1875 C203.1675 85.115625 203.085 86.04375 203 87 C202.83700768 88.83366365 202.67050976 90.6670201 202.5 92.5 C202.4278125 93.3146875 202.355625 94.129375 202.28125 94.96875 C202 97 202 97 201 99 C200.79465218 100.36060759 200.63408839 101.72818882 200.5 103.09765625 C200.4175 103.89880859 200.335 104.69996094 200.25 105.52539062 C200.08295212 107.2206656 199.91628718 108.91597836 199.75 110.61132812 C199.1015274 116.8984726 199.1015274 116.8984726 198 118 C197.78601166 119.34095643 197.6296585 120.69124991 197.5 122.04296875 C197.4175 122.86990234 197.335 123.69683594 197.25 124.54882812 C197.1675 125.41958984 197.085 126.29035156 197 127.1875 C196.48544593 132.49785883 195.91342532 137.74066825 195 143 C190.54583458 175.22310299 190.15749107 208.56521669 198.56591797 240.12402344 C199.74159486 244.64137186 200.19275456 248.37389066 200 253 C200.66 253 201.32 253 202 253 C202.13277344 254.13179687 202.26554688 255.26359375 202.40234375 256.4296875 C202.5805342 257.91148179 202.75893029 259.39325136 202.9375 260.875 C203.06801758 261.99455078 203.06801758 261.99455078 203.20117188 263.13671875 C203.63326063 267.1953231 203.63326063 267.1953231 205 271 C206.10382248 278.68789034 206.1544895 286.4366755 206.125 294.1875 C206.12886719 295.21552734 206.13273438 296.24355469 206.13671875 297.30273438 C206.12702604 304.87759073 206.1168082 312.12225123 203.0625 319.1875 C202.72347656 319.98542969 202.38445312 320.78335937 202.03515625 321.60546875 C201.69355469 322.39566406 201.35195312 323.18585938 201 324 C200.3289318 325.6648993 199.66104091 327.33109403 199 329 C198.34 329 197.68 329 197 329 C196.74863281 329.58652344 196.49726563 330.17304687 196.23828125 330.77734375 C194.84531995 333.27764337 193.35777594 334.70759876 191.1875 336.5625 C190.18783203 337.43068359 190.18783203 337.43068359 189.16796875 338.31640625 C188.45253906 338.87199219 187.73710937 339.42757813 187 340 C186.32984863 340.52368164 185.65969727 341.04736328 184.96923828 341.58691406 C180.7296831 343.6045547 176.95923226 343.37334561 172.32421875 343.29296875 C171.3990596 343.28872391 170.47390045 343.28447906 169.52070618 343.28010559 C166.5760037 343.26335993 163.6319944 343.22571522 160.6875 343.1875 C158.68685887 343.17244785 156.68620697 343.15876037 154.68554688 343.14648438 C149.79009893 343.11346983 144.89516685 343.06171575 140 343 C141 341 141 341 142.84765625 340.3671875 C143.57855469 340.20476562 144.30945313 340.04234375 145.0625 339.875 C145.79597656 339.70742188 146.52945313 339.53984375 147.28515625 339.3671875 C147.85105469 339.24601562 148.41695312 339.12484375 149 339 C149 338.34 149 337.68 149 337 C149.9075 336.401875 150.815 335.80375 151.75 335.1875 C155.90763793 332.38908985 158.40873648 329.77379056 160 325 C160.66 325 161.32 325 162 325 C162.33 322.69 162.66 320.38 163 318 C163.66 318 164.32 318 165 318 C166.2856885 299.24272309 165.87685144 280.77068409 165 262 C164.34 262 163.68 262 163 262 C155.51548802 224.86616014 155.51548802 224.86616014 154.484375 217.1328125 C154.33757761 214.1406579 154.33757761 214.1406579 153 213 C151.61518144 205.21254785 151.75888109 197.3801107 151.75 189.5 C151.74832825 188.71855621 151.74665649 187.93711243 151.74493408 187.13198853 C151.74335666 174.79579652 152.69236492 162.92893238 154.61083984 150.73535156 C155.32761237 145.69725912 155.75029242 140.63124769 156.1875 135.5625 C156.27112793 134.60110107 156.35475586 133.63970215 156.44091797 132.64916992 C156.63113188 130.43307554 156.81780456 128.21676574 157 126 C157.66 126 158.32 126 159 126 C158.9690625 124.081875 158.9690625 124.081875 158.9375 122.125 C158.875 118.25 158.875 118.25 160 116 C160.25860479 113.97241263 160.46569964 111.93817131 160.6484375 109.90234375 C160.76533936 108.63737061 160.88224121 107.37239746 161.00268555 106.0690918 C161.06338226 105.39518402 161.12407898 104.72127625 161.18661499 104.02694702 C162.2661456 92.05347829 163.49936004 80.11604377 165.08544922 68.19702148 C166.41869514 57.78249178 167.60235005 46.95222719 161.5234375 37.76953125 C157.03877518 32.31216819 151.7274397 28.2424799 145 26 C143.04681943 25.8971629 141.09032585 25.85361476 139.13447571 25.84178162 C137.29821121 25.82709839 137.29821121 25.82709839 135.42485046 25.81211853 C134.06619302 25.80621438 132.70753516 25.80040393 131.34887695 25.79467773 C129.9198783 25.78509877 128.49088249 25.77508868 127.06188965 25.76467896 C123.17997781 25.73762576 119.2980538 25.71661844 115.41609979 25.69667697 C111.3601562 25.67481998 107.30425012 25.64742989 103.24833679 25.62062073 C95.56673391 25.57068996 87.88511021 25.52575255 80.20346659 25.48259836 C71.45867773 25.43322928 62.7139265 25.37830993 53.96917403 25.32291877 C35.97948407 25.20909283 17.98975807 25.10245199 0 25 C0 16.75 0 8.5 0 0 Z " fill="#6C3328" transform="translate(0,397)"/>
<path d="M0 0 C48.51 0 97.02 0 147 0 C148.98 11.55 150.96 23.1 153 35 C153.90133097 37.31427912 153.90133097 37.31427912 156.875 38.375 C160.06383869 40.03319612 161.41040374 40.82080748 163 44 C163.5625 47.25 163.5625 47.25 163 51 C161.65234375 52.84375 161.65234375 52.84375 160 54.75 C155.97012418 59.74932708 156.35245076 63.80413115 157 70 C157.15405243 71.34660739 157.31045737 72.69294696 157.46875 74.0390625 C157.59733398 75.14145264 157.59733398 75.14145264 157.72851562 76.26611328 C157.8997665 77.67523691 158.08418905 79.0828803 158.28710938 80.48779297 C159.45476452 89.41704231 159 97.76886503 159 107 C102.57 107 46.14 107 -12 107 C-12 65 -12 65 -11 62 C-10.81038179 60.50398737 -10.65973112 59.00282732 -10.53515625 57.5 C-10.45716797 56.61183594 -10.37917969 55.72367187 -10.29882812 54.80859375 C-10.1439145 52.96755415 -9.99022466 51.12641108 -9.83789062 49.28515625 C-9.34755693 43.72804101 -8.57764665 38.31306709 -7.52856445 32.83447266 C-6.97367441 29.85882673 -6.49646134 26.87824094 -6.03515625 23.88671875 C-5.87466797 22.86642578 -5.71417969 21.84613281 -5.54882812 20.79492188 C-5.22171737 18.70482868 -4.9015208 16.61364286 -4.58789062 14.52148438 C-4.42611328 13.50763672 -4.26433594 12.49378906 -4.09765625 11.44921875 C-3.95851807 10.54518311 -3.81937988 9.64114746 -3.67602539 8.7097168 C-3 6 -3 6 0 0 Z " fill="#E54649" transform="translate(12,289)"/>
<path d="M0 0 C8.98848674 -0.1626158 17.97646267 -0.28678181 26.9661026 -0.3626852 C31.14101841 -0.3991267 35.3149236 -0.44850555 39.48925781 -0.52807617 C43.52235249 -0.60446818 47.55447894 -0.64605854 51.58824158 -0.6641407 C53.12246434 -0.67701611 54.65663758 -0.7021602 56.19044495 -0.7401104 C69.69908513 -1.06087395 69.69908513 -1.06087395 74.88476562 3.33422852 C80.52202445 9.26586414 81.5701627 15.76511802 82 23.625 C82.07605469 24.45773438 82.15210938 25.29046875 82.23046875 26.1484375 C82.5938056 32.31534402 82.5938056 32.31534402 79.5234375 35.85546875 C78.27433594 36.91701172 78.27433594 36.91701172 77 38 C76.64798897 41.46144178 76.43064406 43.86128812 78 47 C78.20699563 48.49496842 78.36679259 49.9966592 78.5 51.5 C78.5825 52.386875 78.665 53.27375 78.75 54.1875 C78.91666667 56.0625 79.08333333 57.9375 79.25 59.8125 C79.3325 60.699375 79.415 61.58625 79.5 62.5 C79.60828125 63.72203125 79.60828125 63.72203125 79.71875 64.96875 C79.89826909 67.06346646 79.89826909 67.06346646 81 69 C81.17668679 71.66188793 81.2773591 74.27381958 81.3125 76.9375 C81.35600586 78.03094727 81.35600586 78.03094727 81.40039062 79.14648438 C81.42578125 81.27734375 81.42578125 81.27734375 81 85 C79.67790481 86.01481135 78.34459252 87.01519102 77 88 C76.67396708 90.65612137 76.57448279 92.86293175 76.6875 95.5 C76.69716797 96.17675781 76.70683594 96.85351562 76.71679688 97.55078125 C76.78617191 100.60931562 77.02740053 103.08220159 78 106 C78.20452223 107.89342843 78.36541362 109.79172547 78.5 111.69140625 C78.5825 112.80064453 78.665 113.90988281 78.75 115.05273438 C78.9169435 117.39646467 79.08360926 119.74021477 79.25 122.08398438 C79.3325 123.19193359 79.415 124.29988281 79.5 125.44140625 C79.60828125 126.96809937 79.60828125 126.96809937 79.71875 128.52563477 C79.85647375 130.99906187 79.85647375 130.99906187 81 133 C81.125 136.0625 81.125 136.0625 81 139 C79.16881916 140.83118084 76.61232955 140.12645259 74.1751709 140.13552856 C73.33877075 140.13350433 72.50237061 140.1314801 71.640625 140.12939453 C70.32608337 140.13202301 70.32608337 140.13202301 68.98498535 140.13470459 C66.07330373 140.13912432 63.1616823 140.13618469 60.25 140.1328125 C58.23600248 140.1334855 56.22200505 140.1344555 54.20800781 140.13571167 C49.98111195 140.13718881 45.75423717 140.13503358 41.52734375 140.13037109 C36.09619468 140.1246738 30.66509501 140.12795272 25.23394775 140.13394356 C21.07340113 140.13754874 16.91286631 140.13641078 12.75231934 140.13381577 C10.74914545 140.13314638 8.74597051 140.13397533 6.74279785 140.13629532 C3.94829448 140.13882115 1.15387229 140.13498224 -1.640625 140.12939453 C-2.47702515 140.13141876 -3.31342529 140.13344299 -4.1751709 140.13552856 C-9.88573758 140.11426242 -9.88573758 140.11426242 -11 139 C-10.78632314 137.45974594 -10.56500963 135.92039699 -10.3203125 134.38476562 C-9.43714972 127.80951099 -9.19342604 121.13627912 -8.75 114.51953125 C-8.6675 113.34261719 -8.585 112.16570312 -8.5 110.953125 C-8.39171875 109.34679199 -8.39171875 109.34679199 -8.28125 107.70800781 C-8 105 -8 105 -7 102 C-6.82889518 99.69148747 -6.73364199 97.37688499 -6.6875 95.0625 C-6.65011719 93.83660156 -6.61273438 92.61070313 -6.57421875 91.34765625 C-7.08341469 87.34416157 -8.18952862 86.70637985 -11 84 C-12.25002044 76.46809716 -10.79211361 68.54631421 -9.5078125 61.09375 C-8.89831538 57.38050599 -8.54675815 53.67488229 -8.24609375 49.92578125 C-8 48 -8 48 -7 46 C-6.77532169 44.46331135 -6.59203195 42.92031946 -6.4375 41.375 C-6.35371094 40.55773438 -6.26992188 39.74046875 -6.18359375 38.8984375 C-6.12300781 38.27195313 -6.06242187 37.64546875 -6 37 C-6.61875 36.731875 -7.2375 36.46375 -7.875 36.1875 C-10 35 -10 35 -12 32 C-12.11463944 29.24571393 -12.10404321 26.67614478 -11.9375 23.9375 C-11.89149658 23.17614746 -11.84549316 22.41479492 -11.7980957 21.63037109 C-11.21705695 14.554176 -9.52293255 8.03120391 -3.95703125 3.2421875 C-2 2 -2 2 0 2 C0 1.34 0 0.68 0 0 Z " fill="#E0F1FC" transform="translate(69,0)"/>
<path d="M0 0 C2.2987284 2.2987284 2.45832914 3.30574785 3.0703125 6.4296875 C3.24433594 7.30753906 3.41835937 8.18539062 3.59765625 9.08984375 C3.77167969 10.00894531 3.94570312 10.92804688 4.125 11.875 C4.30675781 12.78636719 4.48851562 13.69773438 4.67578125 14.63671875 C5.43666784 18.54412882 6 21.99700346 6 26 C6.66 26 7.32 26 8 26 C8.32871094 26.98226562 8.32871094 26.98226562 8.6640625 27.984375 C10.45019348 33.12494709 12.42205425 37.98310416 14.9375 42.8125 C17.8086611 48.37310314 19.92071589 54.04531903 21.921875 59.96875 C22.88551097 62.90907074 22.88551097 62.90907074 24.140625 65.15625 C25 67 25 67 25 71 C25.66 71 26.32 71 27 71 C27.95385749 74.10003683 28.907402 77.20016495 29.859375 80.30078125 C30.57218092 82.61251827 31.29008592 84.92269637 32.015625 87.23046875 C34.23080004 94.30672236 36.21287469 101.41337949 38.0703125 108.58984375 C38.93844476 111.77421125 39.9425944 114.87449591 41 118 C42.73383633 123.89141243 44.24312037 129.84421436 45.6875 135.8125 C45.93886719 136.85019531 46.19023437 137.88789063 46.44921875 138.95703125 C47 142 47 142 47 148 C34.13 148 21.26 148 8 148 C7.01 142.39 6.02 136.78 5 131 C4.67 130.67 4.34 130.34 4 130 C3.52153471 127.91525839 3.04787657 125.82930452 2.59765625 123.73828125 C1.9509814 120.77541152 1.27093892 117.82373793 0.5625 114.875 C0.22412109 113.44800781 0.22412109 113.44800781 -0.12109375 111.9921875 C-0.96507368 108.886614 -0.96507368 108.886614 -2.4765625 105.62109375 C-4.05650271 101.86569741 -5.04460856 98.14371801 -5.9375 94.1875 C-7.24278399 88.69736972 -8.77985177 83.54084275 -11.00390625 78.33984375 C-12.06967659 75.83632833 -13.01274596 73.30885757 -13.9375 70.75 C-14.27136719 69.83089844 -14.60523438 68.91179687 -14.94921875 67.96484375 C-15.68045576 65.90161366 -16.38981553 63.8305534 -17.08203125 61.75390625 C-19.32117571 55.1562933 -21.86725921 49.05511352 -25.0625 42.875 C-28.39656668 36.40253507 -31.0142179 30.02592861 -33 23 C-33.26272705 22.0726001 -33.26272705 22.0726001 -33.53076172 21.12646484 C-35.31377226 14.78081599 -36.91456369 8.51261786 -38 2 C-25.46 2 -12.92 2 0 2 C0 1.34 0 0.68 0 0 Z " fill="#6C3328" transform="translate(149,139)"/>
<path d="M0 0 C10.39615851 -0.02313662 20.79231093 -0.04092185 31.18848991 -0.05181217 C36.01548037 -0.0570381 40.84245325 -0.06413052 45.66943359 -0.07543945 C50.32485248 -0.0862786 54.98025444 -0.09227903 59.63568497 -0.09487724 C61.41474804 -0.09672963 63.19381016 -0.1003467 64.97286606 -0.10573006 C67.45833107 -0.11295409 69.94372546 -0.11399036 72.42919922 -0.11352539 C73.54050201 -0.1189183 73.54050201 -0.1189183 74.67425537 -0.12442017 C79.77189568 -0.11405216 79.77189568 -0.11405216 82 1 C82.37890625 4.0546875 82.37890625 4.0546875 82.5625 7.875 C82.79531842 13.02806026 82.79531842 13.02806026 84 18 C84.20452223 19.89342843 84.36541362 21.79172547 84.5 23.69140625 C84.5825 24.80064453 84.665 25.90988281 84.75 27.05273438 C84.9169435 29.39646467 85.08360926 31.74021477 85.25 34.08398438 C85.3325 35.19193359 85.415 36.29988281 85.5 37.44140625 C85.60828125 38.96809937 85.60828125 38.96809937 85.71875 40.52563477 C85.85647375 42.99906187 85.85647375 42.99906187 87 45 C87.125 48.0625 87.125 48.0625 87 51 C85.16881916 52.83118084 82.61232955 52.12645259 80.1751709 52.13552856 C79.33877075 52.13350433 78.50237061 52.1314801 77.640625 52.12939453 C76.76426392 52.13114685 75.88790283 52.13289917 74.98498535 52.13470459 C72.07330373 52.13912432 69.1616823 52.13618469 66.25 52.1328125 C64.23600248 52.1334855 62.22200505 52.1344555 60.20800781 52.13571167 C55.98111195 52.13718881 51.75423717 52.13503358 47.52734375 52.13037109 C42.09619468 52.1246738 36.66509501 52.12795272 31.23394775 52.13394356 C27.07340113 52.13754874 22.91286631 52.13641078 18.75231934 52.13381577 C16.74914545 52.13314638 14.74597051 52.13397533 12.74279785 52.13629532 C9.94829448 52.13882115 7.15387229 52.13498224 4.359375 52.12939453 C3.52297485 52.13141876 2.68657471 52.13344299 1.8248291 52.13552856 C-3.88573758 52.11426242 -3.88573758 52.11426242 -5 51 C-4.78632314 49.45974594 -4.56500963 47.92039699 -4.3203125 46.38476562 C-3.43714972 39.80951099 -3.19342604 33.13627912 -2.75 26.51953125 C-2.62625 24.75416016 -2.62625 24.75416016 -2.5 22.953125 C-2.4278125 21.88223633 -2.355625 20.81134766 -2.28125 19.70800781 C-2 17 -2 17 -1 14 C-0.77439324 11.60745424 -0.59151405 9.21071877 -0.4375 6.8125 C-0.35371094 5.54019531 -0.26992188 4.26789063 -0.18359375 2.95703125 C-0.12300781 1.98121094 -0.06242187 1.00539063 0 0 Z " fill="#8DCAFC" transform="translate(63,88)"/>
<path d="M0 0 C61.38 0 122.76 0 186 0 C187.58551562 4.75654686 188.51234637 8.90895681 189.0625 13.8125 C189.21008306 18.27030512 189.21008306 18.27030512 191 22 C191.37514918 24.64656024 191.7061971 27.28179725 192 29.9375 C192.40578678 35.12513306 192.40578678 35.12513306 194 40 C194.20899818 41.72586779 194.36782688 43.45796166 194.5 45.19140625 C194.5825 46.21814453 194.665 47.24488281 194.75 48.30273438 C194.9169645 50.47979489 195.08363011 52.65687834 195.25 54.83398438 C195.3325 55.85943359 195.415 56.88488281 195.5 57.94140625 C195.5721875 58.88701416 195.644375 59.83262207 195.71875 60.80688477 C195.76940367 62.97320988 195.76940367 62.97320988 197 64 C197 78.85 197 93.7 197 109 C128.36 109 59.72 109 -11 109 C-11 108.67 -11 108.34 -11 108 C45.43 108 101.86 108 160 108 C159.3274232 89.39190302 159.3274232 89.39190302 157 71 C155.91569416 61.81771387 155.91569416 61.81771387 158.33984375 57.75390625 C159.42918981 56.43900147 160.53045683 55.13386369 161.64453125 53.83984375 C163.30100854 51.8710949 163.30100854 51.8710949 163.6875 48.3125 C162.81262868 44.09721094 161.33573792 42.65342789 158 40 C157.278125 39.71125 156.55625 39.4225 155.8125 39.125 C153.3664061 37.60673482 153.22390527 35.9229804 152.51538086 33.23779297 C151.46776614 28.68903099 150.66987348 24.09849028 149.875 19.5 C149.60236328 17.98986328 149.60236328 17.98986328 149.32421875 16.44921875 C149.06705078 14.97388672 149.06705078 14.97388672 148.8046875 13.46875 C148.64983887 12.58638672 148.49499023 11.70402344 148.33544922 10.79492188 C147.94614808 7.55131239 148 4.2668881 148 1 C99.49 1 50.98 1 1 1 C0.67 1.66 0.34 2.32 0 3 C0 2.01 0 1.02 0 0 Z " fill="#D33437" transform="translate(11,288)"/>
<path d="M0 0 C8.98848674 -0.1626158 17.97646267 -0.28678181 26.9661026 -0.3626852 C31.14101841 -0.3991267 35.3149236 -0.44850555 39.48925781 -0.52807617 C43.52235249 -0.60446818 47.55447894 -0.64605854 51.58824158 -0.6641407 C53.12246434 -0.67701611 54.65663758 -0.7021602 56.19044495 -0.7401104 C69.69908513 -1.06087395 69.69908513 -1.06087395 74.88476562 3.33422852 C80.52202445 9.26586414 81.5701627 15.76511802 82 23.625 C82.07605469 24.45773438 82.15210938 25.29046875 82.23046875 26.1484375 C82.30201172 27.36273437 82.30201172 27.36273437 82.375 28.6015625 C82.42398438 29.32682129 82.47296875 30.05208008 82.5234375 30.79931641 C81.68204362 34.33678117 79.7921833 35.74493922 77 38 C74.09863013 38.4901294 71.78704616 38.67621029 68.89257812 38.63110352 C68.0903331 38.63825882 67.28808807 38.64541412 66.46153259 38.65278625 C63.81752052 38.66965416 61.17520867 38.65028307 58.53125 38.62890625 C56.68949239 38.62973513 54.84773485 38.63219523 53.00598145 38.63621521 C49.14910573 38.6390719 45.29281115 38.62438482 41.43603516 38.59692383 C36.49608188 38.56284115 31.55716763 38.56886041 26.61716461 38.5875864 C22.81495529 38.59816284 19.01298709 38.58921274 15.21080017 38.57420158 C13.38956926 38.56902403 11.56831312 38.5694964 9.74708557 38.57574654 C7.19998163 38.5812066 4.65435716 38.56079963 2.10742188 38.53344727 C1.35714218 38.53997314 0.60686249 38.54649902 -0.16615295 38.55322266 C-3.7800676 38.48734353 -5.86095199 38.08694382 -8.95202637 36.15415955 C-12.41219791 32.51458068 -12 28.96247497 -12 24.23046875 C-11.70320292 17.00531481 -10.20610595 10.97471115 -6 5 C-2.55164835 2 -2.55164835 2 0 2 C0 1.34 0 0.68 0 0 Z " fill="#E54649" transform="translate(69,0)"/>
<path d="M0 0 C1.67937904 -0.01336143 1.67937904 -0.01336143 3.39268494 -0.0269928 C7.08278192 -0.04825145 10.77112792 -0.02597749 14.46118164 -0.0012207 C17.03276243 -0.00272354 19.60434276 -0.00615457 22.17591858 -0.01142883 C27.5618676 -0.01575885 32.94717089 0.00043832 38.33300781 0.03320312 C44.54364521 0.07067523 50.75333423 0.06892441 56.96402162 0.04616195 C62.95757935 0.02514867 68.95069448 0.03262021 74.94427681 0.0524807 C77.48592059 0.05832048 80.02759123 0.05704301 82.56922722 0.04845619 C86.12618046 0.04044162 89.68150155 0.06477028 93.23828125 0.09765625 C94.2832074 0.08910614 95.32813354 0.08055603 96.40472412 0.07174683 C102.98581175 0.1764616 107.66703551 1.32738133 112.68383789 5.76049805 C115.21987933 9.56456021 115.28582602 11.24558709 114.68383789 15.76049805 C112.57628512 19.03173027 110.1975803 22.00362684 106.68383789 23.76049805 C105.13666705 23.8571394 103.58538522 23.89117046 102.03520203 23.89421082 C101.05522247 23.8984758 100.07524292 23.90274078 99.06556702 23.90713501 C97.98657639 23.90668182 96.90758575 23.90622864 95.79589844 23.90576172 C94.66247009 23.90912033 93.52904175 23.91247894 92.36126709 23.91593933 C88.59768592 23.92547282 84.83414914 23.92739373 81.07055664 23.9284668 C78.46222413 23.93167802 75.85389181 23.93504199 73.24555969 23.93855286 C67.77031158 23.94495307 62.29507556 23.94643487 56.81982422 23.94580078 C50.49418369 23.94520044 44.16862857 23.95574258 37.84300965 23.97154444 C31.75721233 23.98620497 25.67145592 23.98978857 19.58564186 23.98919106 C16.99685124 23.99037278 14.40806001 23.9948053 11.81928062 24.00252342 C8.19943508 24.01230363 4.57980991 24.00945276 0.95996094 24.00341797 C-0.64941597 24.01184723 -0.64941597 24.01184723 -2.29130554 24.02044678 C-3.27974457 24.01625229 -4.26818359 24.0120578 -5.28657532 24.00773621 C-6.14216695 24.00828097 -6.99775858 24.00882574 -7.87927723 24.00938702 C-11.7461371 23.61444888 -14.5040636 22.65660674 -17.12866211 19.76049805 C-18.81916117 15.48976358 -19.66977454 11.21669738 -18.31616211 6.76049805 C-13.21902584 0.27812238 -7.82573804 -0.10252749 0 0 Z " fill="#F9EFEF" transform="translate(60.316162109375,324.239501953125)"/>
<path d="M0 0 C12.21 0 24.42 0 37 0 C39.24740177 10.11330798 39.24740177 10.11330798 39.59765625 14.18359375 C39.67693359 15.04791016 39.75621094 15.91222656 39.83789062 16.80273438 C39.91201172 17.67220703 39.98613281 18.54167969 40.0625 19.4375 C40.21645513 21.20734782 40.37383583 22.97690206 40.53515625 24.74609375 C40.63389038 25.90129517 40.63389038 25.90129517 40.73461914 27.07983398 C40.90654066 29.08020658 40.90654066 29.08020658 42 31 C42.20331599 33.64310784 42.32348481 36.2289923 42.375 38.875 C42.43107422 39.95587891 42.43107422 39.95587891 42.48828125 41.05859375 C42.54769394 44.64315944 42.43105664 46.52867306 39.97322083 49.21612549 C36.21136887 51.4731633 33.1549756 51.49700178 28.9050293 51.36230469 C27.70424492 51.34855049 27.70424492 51.34855049 26.47920227 51.33451843 C23.84351223 51.29955542 21.20935002 51.23587994 18.57421875 51.171875 C16.74293276 51.14196508 14.9116166 51.11385271 13.08027649 51.08746338 C8.26793033 51.01329516 3.45638175 50.91474394 -1.35540771 50.81109619 C-6.26859094 50.7095854 -11.18213675 50.63115696 -16.09570312 50.55078125 C-25.7309635 50.38976761 -35.36553896 50.20299056 -45 50 C-44.67 49.34 -44.34 48.68 -44 48 C-43.41340103 47.98969254 -42.82680206 47.97938507 -42.22242737 47.96876526 C-36.1396213 47.86092806 -30.05697026 47.74631244 -23.97436523 47.62768555 C-21.70161164 47.58426335 -19.42882387 47.54259384 -17.15600586 47.50268555 C-13.89686768 47.44515881 -10.63790269 47.38141448 -7.37890625 47.31640625 C-6.35599991 47.29969376 -5.33309357 47.28298126 -4.27919006 47.26576233 C-3.33829025 47.24581711 -2.39739044 47.22587189 -1.42797852 47.20532227 C-0.59524918 47.18977798 0.23748016 47.1742337 1.09544373 47.15821838 C3.00966585 47.20571386 3.00966585 47.20571386 4 46 C4.08713831 44.29227642 4.10700007 42.58101351 4.09765625 40.87109375 C4.09443359 39.83662109 4.09121094 38.80214844 4.08789062 37.73632812 C4.07951172 36.64771484 4.07113281 35.55910156 4.0625 34.4375 C4.05798828 33.34501953 4.05347656 32.25253906 4.04882812 31.12695312 C4.03699826 28.41791505 4.02051543 25.70898401 4 23 C3.34 23 2.68 23 2 23 C1.65652513 21.04341993 1.32584461 19.08459329 1 17.125 C0.814375 16.03445312 0.62875 14.94390625 0.4375 13.8203125 C-0.08690155 9.24116325 0 4.60907853 0 0 Z " fill="#C4E2FE" transform="translate(108,38)"/>
<path d="M0 0 C12.21 0 24.42 0 37 0 C37 0.66 37 1.32 37 2 C37.70125 2.185625 38.4025 2.37125 39.125 2.5625 C43.7427478 4.8713739 46.95586142 8.28326027 48.82421875 13.14453125 C49.78467263 17.03402887 50.0272117 20.66477614 50.01416016 24.66259766 C50.01211578 25.47443512 50.01007141 26.28627258 50.00796509 27.12271118 C50.00533661 27.74221649 50.00270813 28.3617218 50 29 C42.61271898 29.02526692 35.22544902 29.0428316 27.83813477 29.05493164 C25.32283105 29.05997363 22.80753028 29.06680703 20.29223633 29.07543945 C16.68570225 29.08751094 13.07920677 29.09322949 9.47265625 29.09765625 C7.77424339 29.10539818 7.77424339 29.10539818 6.04151917 29.11329651 C5.00051559 29.11337204 3.95951202 29.11344757 2.88696289 29.11352539 C1.96540909 29.115746 1.04385529 29.11796661 0.09437561 29.12025452 C-2 29 -2 29 -3 28 C-2.7938774 26.40092254 -2.5782142 24.80270214 -2.32470703 23.21044922 C-1.68402546 18.84899741 -1.34255288 14.45097228 -0.9375 10.0625 C-0.628125 6.741875 -0.31875 3.42125 0 0 Z " fill="#C4E2FE" transform="translate(61,111)"/>
<path d="M0 0 C4.98029015 -0.17409588 9.95878001 -0.30055003 14.94140625 -0.38452148 C16.63312663 -0.41955043 18.32463774 -0.46719144 20.015625 -0.52807617 C35.87150691 -1.0843409 35.87150691 -1.0843409 40.96875 3.08984375 C46.54106251 9.43744147 47.47097775 15.80244967 47.6875 23.9375 C47.72166016 24.81212891 47.75582031 25.68675781 47.79101562 26.58789062 C47.87275657 28.72483254 47.9380713 30.86239218 48 33 C43.76242085 36.08997571 40.69963116 36.35497567 35.51171875 36.29296875 C34.4569207 36.28660149 34.4569207 36.28660149 33.3808136 36.28010559 C31.14930869 36.2634006 28.91872887 36.22576614 26.6875 36.1875 C25.1686329 36.17244248 23.64975154 36.15875594 22.13085938 36.14648438 C18.42027566 36.11352473 14.71022822 36.06180016 11 36 C11.66 35.01 12.32 34.02 13 33 C13.97025912 24.55303827 13.16117404 15.03419155 9.125 7.5 C7.19106511 5.22478249 5.49612346 3.61040223 3 2 C2.01 1.34 1.02 0.68 0 0 Z " fill="#D63337" transform="translate(103,0)"/>
<path d="M0 0 C3.16927692 3.16927692 2.96873714 6.99104855 3.03662109 11.35327148 C3.03009521 12.53771851 3.03009521 12.53771851 3.0234375 13.74609375 C3.02005371 14.54587646 3.01666992 15.34565918 3.01318359 16.16967773 C3.00665771 17.07568726 3.00665771 17.07568726 3 18 C-4.38728102 18.02526692 -11.77455098 18.0428316 -19.16186523 18.05493164 C-21.67716895 18.05997363 -24.19246972 18.06680703 -26.70776367 18.07543945 C-30.31429775 18.08751094 -33.92079323 18.09322949 -37.52734375 18.09765625 C-39.22575661 18.10539818 -39.22575661 18.10539818 -40.95848083 18.11329651 C-41.99948441 18.11337204 -43.04048798 18.11344757 -44.11303711 18.11352539 C-45.03459091 18.115746 -45.95614471 18.11796661 -46.90562439 18.12025452 C-49 18 -49 18 -50 17 C-50.04063832 15.33382885 -50.042721 13.66611905 -50 12 C-49.01 12 -48.02 12 -47 12 C-47 13.32 -47 14.64 -47 16 C-30.83 16 -14.66 16 2 16 C1.34 10.72 0.68 5.44 0 0 Z " fill="#BBDBF9" transform="translate(108,122)"/>
<path d="M0 0 C0.99 0 1.98 0 3 0 C3 1.65 3 3.3 3 5 C19.5 5 36 5 53 5 C53 5.33 53 5.66 53 6 C45.61271898 6.02526692 38.22544902 6.0428316 30.83813477 6.05493164 C28.32283105 6.05997363 25.80753028 6.06680703 23.29223633 6.07543945 C19.68570225 6.08751094 16.07920677 6.09322949 12.47265625 6.09765625 C10.77424339 6.10539818 10.77424339 6.10539818 9.04151917 6.11329651 C8.00051559 6.11337204 6.95951202 6.11344757 5.88696289 6.11352539 C4.96540909 6.115746 4.04385529 6.11796661 3.09437561 6.12025452 C1 6 1 6 0 5 C-0.04063832 3.33382885 -0.042721 1.66611905 0 0 Z " fill="#B2B0C0" transform="translate(58,134)"/>
<path d="M0 0 C0.99 0 1.98 0 3 0 C3.042721 1.66611905 3.04063832 3.33382885 3 5 C2 6 2 6 -1.60180664 6.11352539 C-3.20459856 6.11336625 -4.8073956 6.10767063 -6.41015625 6.09765625 C-7.25219101 6.0962413 -8.09422577 6.09482635 -8.96177673 6.09336853 C-11.66205335 6.08775263 -14.36224828 6.07519748 -17.0625 6.0625 C-18.88867068 6.05748705 -20.71484266 6.05292379 -22.54101562 6.04882812 C-27.02737542 6.03777804 -31.51367384 6.02050279 -36 6 C-36 5.67 -36 5.34 -36 5 C-24.12 4.67 -12.24 4.34 0 4 C0 2.68 0 1.36 0 0 Z " fill="#93B7DC" transform="translate(147,134)"/>
<path d="M0 0 C0.99 0.495 0.99 0.495 2 1 C3.23759823 4.71279469 3.35608897 8.31306346 3.5625 12.1875 C3.60568359 12.93708984 3.64886719 13.68667969 3.69335938 14.45898438 C3.79922685 16.30578375 3.9000976 18.15286834 4 20 C3.34 20.33 2.68 20.66 2 21 C-0.21211746 13.94887561 -0.20177072 7.35342179 0 0 Z " fill="#A0D5FD" transform="translate(144,102)"/>
<path d="M0 0 C0.66 0 1.32 0 2 0 C1.25 1.9375 1.25 1.9375 0 4 C-3.57720708 5.38529098 -7.17414434 5.02301992 -10.953125 4.87890625 C-11.61334656 4.85529526 -12.27356812 4.83168427 -12.95379639 4.80735779 C-15.052769 4.7310719 -17.15133949 4.64689847 -19.25 4.5625 C-20.67706397 4.5092441 -22.10414728 4.45650396 -23.53125 4.40429688 C-27.02107733 4.27550501 -30.51058798 4.13963981 -34 4 C-34 3.67 -34 3.34 -34 3 C-33.04109863 2.98018066 -32.08219727 2.96036133 -31.09423828 2.93994141 C-27.54188447 2.86395855 -23.98994424 2.7752307 -20.43798828 2.68261719 C-18.89965979 2.64429699 -17.36124075 2.60944944 -15.82275391 2.578125 C-13.61327724 2.53253941 -11.40442552 2.4745366 -9.1953125 2.4140625 C-8.16085495 2.39673569 -8.16085495 2.39673569 -7.10549927 2.37905884 C-3.1079846 2.35048978 -3.1079846 2.35048978 0 0 Z " fill="#D93E42" transform="translate(148,33)"/>
<path d="M0 0 C2.49505962 2.49505962 2.35948376 3.67328888 2.625 7.125 C2.69976562 8.03507813 2.77453125 8.94515625 2.8515625 9.8828125 C2.92503906 10.93082031 2.92503906 10.93082031 3 12 C2.34 12 1.68 12 1 12 C-1.83022097 8.00439392 -0.76210446 4.57262677 0 0 Z " fill="#833227" transform="translate(191,606)"/>
<path d="M0 0 C0.71484375 1.765625 0.71484375 1.765625 1 4 C-0.43359375 5.921875 -0.43359375 5.921875 -2.4375 7.75 C-3.42556641 8.67039062 -3.42556641 8.67039062 -4.43359375 9.609375 C-5.20896484 10.29773438 -5.20896484 10.29773438 -6 11 C-6 7.39426104 -5.18292538 6.58663434 -3 3.8125 C-2.443125 3.09707031 -1.88625 2.38164063 -1.3125 1.64453125 C-0.879375 1.10183594 -0.44625 0.55914063 0 0 Z " fill="#793C2B" transform="translate(196,724)"/>
</svg>
